<?xml version="1.0" encoding="UTF-8" standalone="no"?>
<!-- Created with Inkscape (http://www.inkscape.org/) -->

<svg
   width="32mm"
   height="23mm"
   viewBox="0 0 32 23"
   version="1.1"
   id="svg722"
   inkscape:version="1.2.2 (b0a8486541, 2022-12-01)"
   sodipodi:docname="logo.svg"
   inkscape:export-filename="pyshv.png"
   inkscape:export-xdpi="192"
   inkscape:export-ydpi="192"
   xmlns:inkscape="http://www.inkscape.org/namespaces/inkscape"
   xmlns:sodipodi="http://sodipodi.sourceforge.net/DTD/sodipodi-0.dtd"
   xmlns="http://www.w3.org/2000/svg"
   xmlns:svg="http://www.w3.org/2000/svg">
  <sodipodi:namedview
     id="namedview724"
     pagecolor="#ffffff"
     bordercolor="#000000"
     borderopacity="0.25"
     inkscape:showpageshadow="2"
     inkscape:pageopacity="0"
     inkscape:pagecheckerboard="true"
     inkscape:deskcolor="#d1d1d1"
     inkscape:document-units="mm"
     showgrid="false"
     inkscape:zoom="12.514702"
     inkscape:cx="61.128102"
     inkscape:cy="46.505301"
     inkscape:window-width="2560"
     inkscape:window-height="1406"
     inkscape:window-x="0"
     inkscape:window-y="0"
     inkscape:window-maximized="1"
     inkscape:current-layer="g594"
     inkscape:lockguides="true" />
  <defs
     id="defs719"><linearGradient
   id="linearGradient4689">
  <stop
     style="stop-color:#5a9fd4;stop-opacity:1;"
     offset="0"
     id="stop4691" />
  <stop
     style="stop-color:#306998;stop-opacity:1;"
     offset="1"
     id="stop4693" />
</linearGradient>
<linearGradient
   id="linearGradient4671">
  <stop
     style="stop-color:#ffd43b;stop-opacity:1;"
     offset="0"
     id="stop4673" />
  <stop
     style="stop-color:#ffe873;stop-opacity:1"
     offset="1"
     id="stop4675" />
</linearGradient>
<linearGradient
   id="linearGradient2795">
  <stop
     style="stop-color:#b8b8b8;stop-opacity:0.49803922;"
     offset="0"
     id="stop2797" />
  <stop
     style="stop-color:#7f7f7f;stop-opacity:0;"
     offset="1"
     id="stop2799" />
</linearGradient>

					
					
					
					
				
				
				
				
			
				
				
				
				
				
			
				
				
				
			
					
					
					
				
				
				
				
				
				
				
				
				
				
				
				
				
				
				
				
				
				
				
				
				
				
				
				
			
				
				
				
				
				
				
				
				
				
				
				
				
				
				
				
				
				
				
				
				
				
				
				
				
				
				
				
				
				
				
				
				
				
				
				
				
				
				
				
				
				
				
				
				
				
				
				
				
				
				
				
				
				
				
				
				
				
				
				
				
				
				
				
				
				
				
				
				
				
				
				
				
				
				
				
				
				
				
			</defs>
  <g
     inkscape:label="Layer 1"
     inkscape:groupmode="layer"
     id="layer1">
    <g
       id="g2390"
       transform="matrix(0.39421854,0,0,0.62729393,-24.002154,-50.559363)">
      <path
         d="m 136.37225,101.06777 c 0.26458,-1.758797 0.0324,-4.159534 -1.06808,-6.09706 -0.0769,-0.130729 -0.15336,-0.261848 -0.22985,-0.392578 -1.54495,-2.606782 -4.99698,-4.238752 -8.80491,-3.274867 -0.85384,-1.974988 -2.8179,-3.357988 -5.10664,-3.357988 -0.85852,0 -1.66865,0.200192 -2.39488,0.547503 -2.98063,-3.701006 -9.26617,-9.49173 -19.075947,-7.480449 -9.77348,2.003866 -14.303349,11.953733 -14.303349,11.953733 -3.39389,-3.148821 -10.439225,-1.794309 -13.874089,1.473534 -3.618275,3.442669 -3.552325,6.059992 -3.552325,6.059992 -2.394493,-1.536367 -6.249642,-4e-4 -6.90524,2.29225 -0.521357,1.81694 0.190826,3.68344 1.882112,4.58567 0.09912,0.048 0.207216,0.0948 0.306336,0.14283 3.206575,1.58084 5.181174,0.70476 5.181174,0.70476 3.822759,8.24141 11.044091,6.09979 14.346275,4.42061 1.034127,-0.52604 3.161698,-1.43608 3.161698,-1.43608 0,0 5.928477,5.62995 14.161695,5.94175 4.91581,0.19043 13.30863,-2.36601 15.27192,-6.88144 8.82013,5.07425 24.39409,1.18749 26.42137,-3.86841 0.80623,-2.00816 0.0215,-6.821343 -5.41727,-5.33376"
         style="fill:#f9f9f9;fill-opacity:1;fill-rule:nonzero;stroke:none;stroke-width:0.390237"
         id="path639"
         clip-path="none" />
      <path
         d="m 141.78962,106.40171 c -2.02728,5.05591 -17.60124,8.94267 -26.42137,3.86842 -1.96328,4.51543 -10.35611,7.07187 -15.27192,6.88104 -8.233215,-0.3118 -14.161692,-5.94174 -14.161692,-5.94174 0,0 -2.127571,0.91042 -3.161698,1.43607 -3.302184,1.67958 -10.523906,3.8212 -14.346666,-4.42021 0,0 -1.974598,0.87608 -5.180783,-0.70516 -0.09912,-0.0476 -0.207216,-0.0948 -0.306727,-0.14283 0.365262,-0.0652 0.725451,-0.13892 1.07042,-0.22477 4.724597,-1.11647 11.047213,-5.62019 15.239527,-1.4033 -0.03239,-3.28735 -3.34589,-5.54331 -6.461931,-5.16127 1.396267,-1.98084 4.184899,-2.835068 6.482223,-2.009717 2.347665,0.837448 3.966367,3.348227 3.774761,5.829747 2.712146,-1.30378 5.018055,-1.61597 7.965123,-1.09266 2.947068,0.52799 4.87835,2.3703 6.090816,5.11171 -0.896764,-4.85064 -3.456327,-7.61079 -8.376043,-7.32553 -0.161948,-2.771458 0.143998,-4.655521 1.815382,-6.875968 1.666701,-2.22435 4.634452,-3.586276 7.312257,-2.855363 2.682101,0.735596 4.605571,3.882076 3.576911,6.46076 0.43043,-0.658329 2.00269,-1.046615 2.92678,-0.417943 0.72466,0.492869 0.91627,1.880161 0.74418,2.452248 0.73793,-2.144742 2.98063,-3.667446 5.24712,-3.560911 2.27079,0.105754 4.36246,1.831381 4.90372,4.033877 0.36955,-4.109973 -3.5297,-8.057218 -7.63889,-7.740736 5.7037,-3.16404 13.38083,-1.088371 14.24013,5.407121 2.20445,-7.252161 11.94944,-5.789944 13.45263,-3.033701 1.10086,1.937135 1.40252,4.645769 1.06847,6.097056 5.43834,-1.487579 6.2235,3.3256 5.41727,5.33376"
         style="fill:#cce1f4;fill-opacity:1;fill-rule:nonzero;stroke:none;stroke-width:0.390237"
         id="path643"
         clip-path="none" />
    </g>
    <g
       id="g981"
       style="opacity:0.75"
       transform="matrix(0.39421854,0,0,0.56839903,-23.285339,-45.917465)">
      <path
         d="m 65.428183,101.91193 -0.04688,3.77719 34.153124,6.48405 0.0508,-3.75567 -34.15704,-6.50557"
         style="fill:#4d4d4d;fill-opacity:1;fill-rule:nonzero;stroke:none;stroke-width:0.0352778"
         id="path47" />
      <path
         d="m 99.585223,108.4175 -0.0508,3.75567 34.055057,-11.34604 0.0476,-3.776828 -34.051877,11.367198"
         style="fill:#808080;fill-opacity:1;fill-rule:nonzero;stroke:none;stroke-width:0.0352778"
         id="path49" />
      <path
         d="M 133.6371,97.050302 99.481507,90.546842 65.428183,101.91193 99.585223,108.4175 133.6371,97.050302"
         style="fill:#666666;fill-opacity:1;fill-rule:nonzero;stroke:none;stroke-width:0.0352778"
         id="path51" />
      <path
         d="m 120.74237,94.594962 -0.77223,-0.14675 0.0324,-0.0109 0.77187,0.14711 -0.0321,0.0106 m -3.02154,-0.57503 -0.77117,-0.1471 0.0317,-0.0106 0.77188,0.14676 -0.0325,0.0109 m -3.01978,-0.57502 -0.77294,-0.14711 0.0321,-0.0109 0.77224,0.14746 -0.0314,0.0106 m -3.02155,-0.57538 -0.77258,-0.14711 0.0321,-0.0109 0.77188,0.14746 -0.0314,0.0106"
         style="fill:#b2c9cb;fill-opacity:1;fill-rule:nonzero;stroke:none;stroke-width:0.0352778"
         id="path53" />
      <path
         d="m 112.37836,104.15065 -0.007,-0.001 0.78281,-0.26141 0.007,0.001 -0.78281,0.2614 m 2.93511,-0.98001 -0.007,-0.001 0.75071,-0.25083 0.006,10e-4 -0.74965,0.25048 m 2.93405,-0.97967 -0.006,-0.001 0.75001,-0.25047 0.006,0.001 -0.75001,0.25047 m 2.93405,-0.97966 -0.006,-10e-4 0.75107,-0.25082 0.006,0.001 -0.75107,0.25083"
         style="fill:#235874;fill-opacity:1;fill-rule:nonzero;stroke:none;stroke-width:0.0352778"
         id="path55" />
      <path
         d="m 66.288467,103.90336 -0.04685,2.71462 1.669627,0.3242 0.05101,-2.69275 -1.67379,-0.34607"
         style="fill:#ffcc00;fill-opacity:1;fill-rule:nonzero;stroke:none;stroke-width:0.0352778"
         id="path61" />
      <path
         d="m 66.62223,104.55423 -0.02438,2.56364 0.904134,0.1718 0.02798,-2.54776 -0.907733,-0.18768"
         style="fill:#ffcc00;fill-opacity:1;fill-rule:nonzero;stroke:none;stroke-width:0.0352778"
         id="path63" />
      <path
         d="m 69.693902,104.55423 -0.04699,2.71427 1.669873,0.32456 0.05101,-2.69275 -1.673895,-0.34608"
         style="fill:#ffcc00;fill-opacity:1;fill-rule:nonzero;stroke:none;stroke-width:0.0352778"
         id="path65" />
      <path
         d="m 70.027912,105.20475 -0.02424,2.56399 0.903852,0.17145 0.02769,-2.54776 -0.907309,-0.18768"
         style="fill:#ffcc00;fill-opacity:1;fill-rule:nonzero;stroke:none;stroke-width:0.0352778"
         id="path67" />
      <path
         d="m 73.099583,105.20475 -0.04741,2.71463 1.670191,0.3242 0.05069,-2.6924 -1.673472,-0.34643"
         style="fill:#ffcc00;fill-opacity:1;fill-rule:nonzero;stroke:none;stroke-width:0.0352778"
         id="path69" />
      <path
         d="m 73.433452,105.85528 -0.02452,2.56363 0.903852,0.17251 0.02769,-2.54811 -0.907027,-0.18803"
         style="fill:#ffcc00;fill-opacity:1;fill-rule:nonzero;stroke:none;stroke-width:0.0352778"
         id="path71" />
      <path
         d="m 76.505124,105.85528 -0.04713,2.71462 1.669909,0.32456 0.05055,-2.69276 -1.673331,-0.34642"
         style="fill:#ffcc00;fill-opacity:1;fill-rule:nonzero;stroke:none;stroke-width:0.0352778"
         id="path73" />
      <path
         d="m 76.838746,106.5065 -0.02452,2.56329 0.903993,0.1718 0.02783,-2.54741 -0.907309,-0.18768"
         style="fill:#ffcc00;fill-opacity:1;fill-rule:nonzero;stroke:none;stroke-width:0.0352778"
         id="path75" />
      <path
         d="m 79.910664,106.5065 -0.04741,2.71463 1.669909,0.3242 0.05098,-2.6924 -1.673472,-0.34643"
         style="fill:#ffcc00;fill-opacity:1;fill-rule:nonzero;stroke:none;stroke-width:0.0352778"
         id="path77" />
      <path
         d="m 80.244145,107.15667 -0.02413,2.56399 0.903605,0.17216 0.02769,-2.54776 -0.907168,-0.18839"
         style="fill:#ffcc00;fill-opacity:1;fill-rule:nonzero;stroke:none;stroke-width:0.0352778"
         id="path79" />
      <path
         d="m 83.315781,107.15667 -0.04699,2.71533 1.669804,0.32421 0.05115,-2.69276 -1.673966,-0.34678"
         style="fill:#ffcc00;fill-opacity:1;fill-rule:nonzero;stroke:none;stroke-width:0.0352778"
         id="path81" />
      <path
         d="m 83.649403,107.8079 -0.02438,2.56399 0.904346,0.17145 0.02752,-2.54776 -0.907486,-0.18768"
         style="fill:#ffcc00;fill-opacity:1;fill-rule:nonzero;stroke:none;stroke-width:0.0352778"
         id="path83" />
      <path
         d="m 86.721181,107.8079 -0.04692,2.71463 1.670051,0.3242 0.0508,-2.6924 -1.673931,-0.34643"
         style="fill:#ffcc00;fill-opacity:1;fill-rule:nonzero;stroke:none;stroke-width:0.0352778"
         id="path85" />
      <path
         d="m 87.055261,108.45878 -0.02434,2.56328 0.903816,0.17251 0.02716,-2.54812 -0.906639,-0.18767"
         style="fill:#ffcc00;fill-opacity:1;fill-rule:nonzero;stroke:none;stroke-width:0.0352778"
         id="path87" />
      <path
         d="m 90.126545,108.45878 -0.04692,2.71427 1.669697,0.32455 0.05115,-2.69275 -1.673931,-0.34607"
         style="fill:#ffcc00;fill-opacity:1;fill-rule:nonzero;stroke:none;stroke-width:0.0352778"
         id="path89" />
      <path
         d="m 90.460626,109.1093 -0.02434,2.56399 0.903817,0.1718 0.02752,-2.54776 -0.906991,-0.18803"
         style="fill:#ffcc00;fill-opacity:1;fill-rule:nonzero;stroke:none;stroke-width:0.0352778"
         id="path91" />
      <path
         d="m 93.532262,109.1093 -0.04692,2.71498 1.669698,0.32385 0.05115,-2.69205 -1.67393,-0.34678"
         style="fill:#ffcc00;fill-opacity:1;fill-rule:nonzero;stroke:none;stroke-width:0.0352778"
         id="path93" />
      <path
         d="m 93.86599,109.76017 -0.02434,2.56364 0.903464,0.17216 0.02858,-2.54812 -0.907697,-0.18768"
         style="fill:#ffcc00;fill-opacity:1;fill-rule:nonzero;stroke:none;stroke-width:0.0352778"
         id="path95" />
      <path
         d="m 96.937626,109.76017 -0.04727,2.71463 1.67005,0.3242 0.05115,-2.6924 -1.673931,-0.34643"
         style="fill:#ffcc00;fill-opacity:1;fill-rule:nonzero;stroke:none;stroke-width:0.0352778"
         id="path97" />
      <path
         d="m 97.271354,110.41105 -0.02434,2.56399 0.903817,0.1718 0.02822,-2.54847 -0.907697,-0.18732"
         style="fill:#ffcc00;fill-opacity:1;fill-rule:nonzero;stroke:none;stroke-width:0.0352778"
         id="path99" />
      <path
         d="m 102.37534,109.2744 -0.004,2.74285 -1.67005,0.51787 v -2.72027 l 1.67393,-0.54045"
         style="fill:#ffcc00;fill-opacity:1;fill-rule:nonzero;stroke:none;stroke-width:0.0352778"
         id="path101" />
      <path
         d="m 102.04126,109.92527 -0.0261,2.59221 -0.90417,0.28117 0.0233,-2.59574 0.90699,-0.27764"
         style="fill:#ffcc00;fill-opacity:1;fill-rule:nonzero;stroke:none;stroke-width:0.0352778"
         id="path103" />
      <path
         d="m 105.81105,108.10847 -0.003,2.74249 -1.67005,0.51788 v -2.72027 l 1.67357,-0.5401"
         style="fill:#ffcc00;fill-opacity:1;fill-rule:nonzero;stroke:none;stroke-width:0.0352778"
         id="path105" />
      <path
         d="m 105.47697,108.75864 -0.0265,2.59221 -0.90347,0.28187 0.0233,-2.59645 0.90664,-0.27763"
         style="fill:#ffcc00;fill-opacity:1;fill-rule:nonzero;stroke:none;stroke-width:0.0352778"
         id="path107" />
      <path
         d="m 109.24675,106.94183 -0.004,2.7425 -1.6697,0.51823 v -2.72063 l 1.67358,-0.5401"
         style="fill:#ffcc00;fill-opacity:1;fill-rule:nonzero;stroke:none;stroke-width:0.0352778"
         id="path109" />
      <path
         d="m 108.91302,107.59235 -0.0265,2.59222 -0.90417,0.28116 0.0229,-2.59539 0.9077,-0.27799"
         style="fill:#ffcc00;fill-opacity:1;fill-rule:nonzero;stroke:none;stroke-width:0.0352778"
         id="path111" />
      <path
         d="m 112.68245,105.7752 -0.004,2.7432 -1.67005,0.51752 v -2.72027 l 1.67358,-0.54045"
         style="fill:#ffcc00;fill-opacity:1;fill-rule:nonzero;stroke:none;stroke-width:0.0352778"
         id="path113" />
      <path
         d="m 112.34872,106.42607 -0.0265,2.59186 -0.90381,0.28187 0.0229,-2.59609 0.90734,-0.27764"
         style="fill:#ffcc00;fill-opacity:1;fill-rule:nonzero;stroke:none;stroke-width:0.0352778"
         id="path115" />
      <path
         d="m 116.11816,104.60891 -0.004,2.74285 -1.67005,0.51823 v -2.72062 l 1.67357,-0.54046"
         style="fill:#ffcc00;fill-opacity:1;fill-rule:nonzero;stroke:none;stroke-width:0.0352778"
         id="path117" />
      <path
         d="m 115.78443,105.25979 -0.0265,2.59221 -0.90417,0.28116 0.0236,-2.59574 0.90699,-0.27763"
         style="fill:#ffcc00;fill-opacity:1;fill-rule:nonzero;stroke:none;stroke-width:0.0352778"
         id="path119" />
      <path
         d="m 119.55386,103.44228 -0.004,2.74284 -1.67005,0.51823 v -2.72097 l 1.67358,-0.5401"
         style="fill:#ffcc00;fill-opacity:1;fill-rule:nonzero;stroke:none;stroke-width:0.0352778"
         id="path121" />
      <path
         d="m 119.22013,104.0935 -0.0265,2.59151 -0.90382,0.28152 0.0233,-2.59539 0.907,-0.27764"
         style="fill:#ffcc00;fill-opacity:1;fill-rule:nonzero;stroke:none;stroke-width:0.0352778"
         id="path123" />
      <path
         d="m 122.98956,102.27564 -0.004,2.7432 -1.6697,0.51823 v -2.72097 l 1.67323,-0.54046"
         style="fill:#ffcc00;fill-opacity:1;fill-rule:nonzero;stroke:none;stroke-width:0.0352778"
         id="path125" />
      <path
         d="m 122.65619,102.92687 -0.0268,2.59221 -0.90382,0.28116 0.0233,-2.59574 0.90734,-0.27763"
         style="fill:#ffcc00;fill-opacity:1;fill-rule:nonzero;stroke:none;stroke-width:0.0352778"
         id="path127" />
      <path
         d="m 126.42562,101.11006 -0.004,2.7425 -1.6697,0.51787 v -2.72062 l 1.67358,-0.53975"
         style="fill:#ffcc00;fill-opacity:1;fill-rule:nonzero;stroke:none;stroke-width:0.0352778"
         id="path129" />
      <path
         d="m 126.09154,101.76023 -0.0265,2.59221 -0.90382,0.28187 0.0233,-2.59609 0.90699,-0.27799"
         style="fill:#ffcc00;fill-opacity:1;fill-rule:nonzero;stroke:none;stroke-width:0.0352778"
         id="path131" />
      <path
         d="m 129.86097,99.943072 -0.004,2.742848 -1.6697,0.51788 v -2.72027 l 1.67323,-0.540458"
         style="fill:#ffcc00;fill-opacity:1;fill-rule:nonzero;stroke:none;stroke-width:0.0352778"
         id="path133" />
      <path
         d="m 129.52759,100.59395 -0.0265,2.59186 -0.90381,0.28151 0.0229,-2.59538 0.90734,-0.27799"
         style="fill:#ffcc00;fill-opacity:1;fill-rule:nonzero;stroke:none;stroke-width:0.0352778"
         id="path135" />
      <path
         d="m 133.29738,98.776792 -0.004,2.743198 -1.6697,0.51823 v -2.720968 l 1.67393,-0.54046"
         style="fill:#ffcc00;fill-opacity:1;fill-rule:nonzero;stroke:none;stroke-width:0.0352778"
         id="path137" />
      <path
         d="m 132.9633,99.427312 -0.0265,2.592208 -0.90382,0.28187 0.0229,-2.596088 0.90735,-0.27799"
         style="fill:#ffcc00;fill-opacity:1;fill-rule:nonzero;stroke:none;stroke-width:0.0352778"
         id="path139" />
      <path
         d="m 99.155187,94.720902 -8.142464,-1.55081 8.142817,1.55081 h -3.53e-4"
         style="fill:#636264;fill-opacity:1;fill-rule:nonzero;stroke:none;stroke-width:0.0352778"
         id="path157" />
    </g>
    <g
       id="g594"
       transform="matrix(0.11328906,0,0,0.11328906,4.5602825,-1.0675297)">
			<path
   style="display:inline;fill:#265f1f"
   d="m 172.751,107.511 c -0.174,-0.373 0.444,-0.756 0.678,-0.989 1.293,-1.283 2.825,-3.597 1.674,-5.455 -0.83,-1.34 -2.613,-1.379 -4.036,-1.13 1.089,-2.091 1.384,-4.526 -0.74,-5.813 -2.023,-1.227 -3.587,-0.075 -4.58,1.623 -0.229,-0.721 -0.46,-1.438 -0.737,-2.144 -0.182,-0.466 -0.409,-1.053 -0.705,-1.62 0.11,-0.521 -0.065,-1 -0.629,-1.001 -0.434,-0.55 -0.961,-0.968 -1.62,-1.046 -0.689,-0.083 -1.274,0.172 -1.769,0.589 -0.925,-0.642 -1.73,-1.59 -2.35,-2.312 -1.602,-1.875 -3.171,-3.705 -4.958,-5.415 -4.364,-4.173 -9.479,-7.603 -14.752,-10.513 -10.998,-6.069 -23.62,-10.24 -36.194,-11.013 -13.376,-0.82 -26.577,3.149 -37.971,10.035 -5.109,3.089 -10.218,6.784 -13.552,11.824 -1.515,2.285 -2.627,4.818 -3.516,7.409 -0.392,1.149 -0.704,2.334 -1.137,3.471 -0.201,0.53 -0.451,1.04 -0.84,1.456 -0.451,0.48 -1.358,0.551 -1.962,0.762 -1.638,0.574 -2.549,2.277 -2.611,3.915 -0.027,0.717 0.143,1.437 0.392,2.143 -1.033,-0.281 -2.08,-0.482 -3.151,-0.392 -1.921,0.155 -3.168,1.512 -3.237,3.399 -0.025,0.761 0.135,1.54 0.394,2.297 -0.066,-0.011 -0.13,-0.026 -0.191,-0.039 -0.523,-0.112 -1.067,0.534 -1.167,0.976 -0.278,1.239 0.257,2.093 0.922,2.904 -0.262,-0.027 -0.527,-0.031 -0.793,-0.012 -1.393,0.111 -2.508,1.017 -3.159,2.221 -0.607,1.131 0.136,1.805 1.11,2.318 -0.278,0.172 -0.557,0.351 -0.835,0.515 -1.13,0.682 -2.435,1.517 -2.958,2.791 -0.079,0.189 -0.157,0.559 0.056,0.715 2.161,1.524 4.95,1.85 7.535,1.751 0.504,-0.021 1.024,-0.069 1.544,-0.148 -0.077,0.575 -0.087,1.167 -0.048,1.767 0.118,1.75 1.081,4.898 2.764,5.747 0.922,0.466 2.017,-0.491 2.62,-1.057 0.953,-0.893 1.825,-1.893 2.564,-2.971 0.001,-0.004 0.001,-0.008 0.007,-0.011 0.025,0.143 0.06,0.275 0.103,0.404 -0.024,0.399 0.207,0.753 0.584,0.829 0.37,0.251 0.893,0.318 1.624,0.121 1.178,-0.323 2.204,-1.004 3.097,-1.858 0.065,2.368 0.729,4.335 2.736,4.025 2.854,-0.436 4.862,-3.955 5.855,-6.342 0.147,-0.36 0.313,-0.832 0.462,-1.369 0.167,0.072 0.33,0.139 0.47,0.192 1.314,0.526 2.934,0.836 4.069,-0.228 1.435,-1.348 0.444,-3.022 -0.419,-4.368 -0.141,-0.22 -0.295,-0.438 -0.45,-0.657 1.171,0.344 2.668,0.215 3.476,-0.148 0.596,-0.267 1.134,-0.945 0.928,-1.623 -0.115,-0.382 -0.3,-0.749 -0.508,-1.103 0.007,-0.027 0.015,-0.056 0.018,-0.083 0.008,-0.047 0.014,-0.094 0.016,-0.14 0.02,-0.009 0.043,-0.018 0.06,-0.025 1.225,0.215 2.451,0.211 3.648,-0.168 1.671,-0.531 2.031,-2.418 2.003,-3.929 -0.014,-0.827 -0.069,-1.663 -0.147,-2.5 0.049,-0.027 0.099,-0.052 0.147,-0.084 1.546,-0.946 2.072,-2.632 1.967,-4.308 0.175,0.199 0.35,0.39 0.534,0.567 0.432,0.418 0.945,0.223 1.341,-0.164 0.057,0.751 0.151,1.5 0.182,2.189 0.03,0.67 0.1,1.531 0.645,1.998 0.777,0.67 1.862,-0.139 2.46,-0.649 1.648,-1.408 2.237,-3.979 2.823,-5.965 0.096,-0.319 0.202,-0.67 0.311,-1.034 0.57,1.056 1.366,1.852 2.422,1.648 1.516,-0.29 2.023,-2.121 2.282,-3.403 0.135,-0.675 0.267,-1.392 0.371,-2.123 0.869,-0.075 1.652,-0.581 2.167,-1.279 -0.127,0.741 -0.192,1.504 -0.33,2.18 -0.26,1.277 -0.968,4.677 1.222,4.522 0.942,-0.061 1.768,-1.176 2.304,-1.834 0.662,-0.81 1.213,-1.716 1.721,-2.628 0.002,-0.005 0.005,-0.009 0.008,-0.015 -0.059,0.443 -0.042,0.887 0.119,1.304 0.172,0.447 0.693,0.387 1.048,0.26 0.95,-0.335 1.671,-1.055 2.296,-1.846 0.039,1.096 0.272,2.344 1.237,2.787 1.259,0.579 2.573,-0.896 3.413,-2.006 -0.176,0.427 -0.328,0.875 -0.448,1.349 -0.157,0.601 0.358,1.151 0.971,0.976 0.869,-0.246 1.365,-0.77 2.039,-1.323 0.155,-0.127 0.309,-0.249 0.464,-0.375 0.136,1.168 0.866,2.049 1.876,2.695 0.993,0.629 2.289,0.166 3.177,-0.468 0,0.137 0,0.276 0.009,0.415 0.088,1.979 1.727,1.887 3.113,1.076 0.653,-0.384 1.235,-0.876 1.793,-1.399 -0.521,1.11 -0.748,2.381 0.759,2.685 1.92,0.382 3.907,-0.521 5.732,-1.022 -0.673,0.754 -1.231,1.624 -1.189,2.524 0.041,0.857 0.959,1.08 1.596,1.36 1.017,0.45 2.25,0.675 3.442,0.793 -0.384,0.24 -0.749,0.511 -1.081,0.84 -0.338,0.335 -0.762,1.114 -0.304,1.534 0.812,0.741 1.979,0.759 3.017,0.93 0.986,0.163 1.965,0.327 2.956,0.429 -1.299,0.929 -2.765,2.392 -1.697,3.977 0.982,1.459 2.912,2.095 4.494,2.673 -0.935,0.477 -1.723,0.956 -1.981,1.136 -0.383,0.272 -1.275,1.399 -0.596,1.848 0.528,0.354 1.108,0.606 1.711,0.788 -0.04,0.164 -0.069,0.335 -0.085,0.507 -0.221,2.33 1.495,3.457 3.439,3.888 -0.838,1.319 -1.373,2.866 -1.411,4.247 -0.013,0.362 0.338,0.722 0.706,0.708 1.773,-0.069 3.457,-0.77 5.054,-1.598 -0.316,0.767 -0.574,1.558 -0.663,2.33 -0.061,0.486 0.113,0.924 0.66,0.974 1.891,0.186 3.271,-1.392 4.543,-2.545 0.195,1.5 0.657,3.55 2.049,4.201 2.064,0.974 3.205,-1.85 3.507,-3.348 v 0 c 0.479,0.942 1.155,1.77 2.002,2.292 0.703,0.43 1.629,-0.539 1.89,-1.076 0.408,-0.835 0.564,-1.77 0.617,-2.716 0.796,1.048 2.107,1.718 3.329,0.965 1.285,-0.798 1.434,-2.293 1.293,-3.682 0.893,-0.741 1.546,-1.72 1.893,-2.796 1.495,0.052 3.057,-0.199 3.882,-0.452 1.652,-0.515 3.171,-1.464 3.689,-3.199 0.287,-0.951 -0.274,-1.802 -0.796,-2.54 -0.127,-0.183 -0.234,-0.367 -0.331,-0.569 -0.033,-0.067 -0.039,-0.116 -0.039,-0.153 0.263,-0.178 0.739,-0.276 0.996,-0.366 2.175,-0.755 4.266,-1.604 4.846,-4.083 0.207,-0.873 -0.166,-1.654 -0.706,-2.31 -0.218,-0.268 -0.449,-0.498 -0.594,-0.814 z"
   id="path338" />
<path
   style="fill:#177322"
   d="m 76.51,42.47 c -0.41,-2.356 -1.444,-5.658 -3.721,-6.862 -1.038,-0.551 -1.947,-0.344 -2.695,0.211 -0.033,-0.206 -0.068,-0.409 -0.103,-0.613 -0.276,-1.642 -0.822,-3.243 -1.16,-4.875 -0.193,-0.924 -0.521,-2.073 -1.635,-2.191 -1.859,-0.193 -3.5,1.67 -4.554,2.954 -0.154,0.188 -0.313,0.388 -0.479,0.598 -0.552,0.394 -0.927,1.018 -1.213,1.736 0,-1.7 -0.695,-3.345 -1.478,-4.85 -0.308,-0.593 -0.73,-1.51 -1.418,-1.753 -0.945,-0.333 -1.895,0.589 -2.43,1.239 -1.227,1.479 -1.831,3.334 -2.646,5.037 -0.31,0.648 -0.705,1.472 -1.037,2.361 -0.3,-0.801 -0.681,-1.576 -1.128,-2.324 -0.48,-0.804 -1.063,-1.54 -1.68,-2.242 -0.491,-0.559 -1.049,-1.228 -1.84,-1.291 -1.616,-0.121 -2.411,2.432 -2.945,3.514 -0.222,0.451 -0.474,0.984 -0.691,1.554 -0.6,-0.402 -1.253,-0.725 -1.938,-0.956 -0.583,-0.193 -1.176,0.3 -1.405,0.801 -0.494,1.078 -0.651,3.498 -0.103,5.287 -0.936,-0.249 -1.963,-0.304 -2.594,-0.276 -0.823,0.037 -1.851,0.906 -1.528,1.818 0.296,0.824 0.676,1.624 1.086,2.401 -0.686,-0.21 -1.372,-0.397 -2.082,-0.398 -0.639,-0.001 -1.303,0.543 -1.411,1.183 -0.164,0.958 -0.278,1.925 -0.339,2.896 -0.807,-1.485 -2.818,-2.803 -4.043,-3.08 -0.633,-0.143 -1.215,0.635 -1.359,1.142 -0.476,1.682 -0.192,3.469 -0.169,5.192 0,0.1 0,0.204 0,0.306 -0.629,-0.145 -1.279,-0.193 -1.917,-0.206 -1.232,-0.031 -2.803,0.091 -3.846,0.811 -1.642,1.139 -1.168,3.161 -0.447,4.685 0.274,0.581 0.589,1.147 0.93,1.7 0.178,0.759 0.501,1.494 0.953,2.164 0.329,0.488 0.699,0.944 1.083,1.39 -0.089,0.013 -0.17,0.025 -0.248,0.039 -1.176,0.188 -3.065,0.729 -3.918,1.628 -1.293,1.357 -0.268,2.491 0.731,3.64 0.465,0.533 0.966,1.054 1.509,1.536 0.005,0.007 0.015,0.011 0.023,0.019 -1.538,1.117 -3.219,2.733 -3.444,4.518 -0.081,0.658 0.294,1.01 0.941,0.942 2.022,-0.21 4.503,0.043 6.847,-0.11 0.091,0.462 0.284,0.883 0.627,1.205 1.261,1.177 2.892,0.533 4.372,-0.313 -0.209,1.079 -0.162,2.142 0.679,3.228 1.539,1.987 3.568,1.067 5.526,0.451 -0.297,1.275 -0.695,2.533 -0.394,3.871 0.58,2.588 3.427,2.714 5.51,2.01 2.611,-0.886 4.771,-3.066 6.338,-5.252 1.268,-1.769 1.946,-3.742 1.882,-5.777 0.66,0.721 1.353,1.411 2.091,2.053 1.401,1.215 3.029,2.452 4.958,2.535 2.178,0.092 3.367,-2.284 3.126,-4.196 -0.089,-0.746 -0.32,-1.477 -0.378,-2.229 -0.005,-0.073 -0.005,-0.122 -0.005,-0.152 0.057,-0.061 0.12,-0.114 0.193,-0.149 0.249,-0.12 0.532,-0.096 0.802,-0.082 2.472,0.141 6.461,3.101 8.394,0.289 1.122,-1.63 0.494,-3.839 -0.709,-5.694 2.095,0.182 4.219,-0.31 5.087,-2.294 1.064,-2.435 -0.321,-4.631 -2.203,-6.308 1.046,-0.533 1.758,-1.536 1.831,-3.083 0.013,-0.29 -0.067,-0.598 -0.206,-0.878 0.502,-0.761 0.938,-1.57 1.295,-2.426 1.048,-2.528 1.189,-5.419 0.725,-8.084 z"
   id="path352" />
<path
   style="fill:#177322"
   d="m 178.23,69.245 c -0.239,-1.893 -2.023,-3.605 -3.65,-4.793 0.005,-0.008 0.014,-0.015 0.021,-0.023 0.577,-0.504 1.109,-1.063 1.601,-1.626 1.057,-1.219 2.145,-2.423 0.772,-3.861 -0.904,-0.95 -2.906,-1.527 -4.152,-1.726 -0.085,-0.014 -0.167,-0.029 -0.26,-0.043 0.402,-0.475 0.795,-0.955 1.143,-1.474 0.482,-0.712 0.825,-1.488 1.012,-2.297 0.363,-0.583 0.699,-1.181 0.987,-1.799 0.762,-1.618 1.264,-3.76 -0.475,-4.969 -1.107,-0.763 -2.773,-0.896 -4.079,-0.862 -0.676,0.015 -1.368,0.067 -2.033,0.218 0,-0.107 0,-0.218 0,-0.323 0.023,-1.827 0.324,-3.723 -0.178,-5.509 -0.151,-0.535 -0.773,-1.359 -1.444,-1.209 -1.299,0.294 -3.431,1.691 -4.284,3.267 -0.066,-1.03 -0.19,-2.055 -0.362,-3.07 -0.115,-0.681 -0.819,-1.257 -1.499,-1.257 -0.751,0 -1.478,0.198 -2.205,0.423 0.435,-0.826 0.837,-1.672 1.15,-2.55 0.343,-0.967 -0.747,-1.885 -1.618,-1.924 -0.671,-0.032 -1.762,0.027 -2.755,0.29 0.59,-1.897 0.419,-4.463 -0.104,-5.607 -0.242,-0.53 -0.873,-1.056 -1.49,-0.845 -0.731,0.243 -1.419,0.584 -2.056,1.009 -0.232,-0.603 -0.502,-1.169 -0.735,-1.645 -0.567,-1.151 -1.412,-3.861 -3.122,-3.726 -0.84,0.066 -1.431,0.776 -1.953,1.367 -0.656,0.746 -1.272,1.525 -1.784,2.382 -0.474,0.791 -0.878,1.611 -1.195,2.462 -0.353,-0.943 -0.771,-1.82 -1.098,-2.504 -0.865,-1.807 -1.507,-3.777 -2.805,-5.343 -0.573,-0.69 -1.58,-1.668 -2.581,-1.314 -0.728,0.254 -1.173,1.23 -1.503,1.858 -0.83,1.596 -1.565,3.342 -1.568,5.147 -0.299,-0.765 -0.699,-1.424 -1.286,-1.843 -0.173,-0.221 -0.346,-0.436 -0.51,-0.633 -1.111,-1.365 -2.855,-3.337 -4.827,-3.133 -1.182,0.124 -1.531,1.341 -1.734,2.322 -0.356,1.734 -0.938,3.429 -1.234,5.171 -0.033,0.214 -0.07,0.433 -0.104,0.65 -0.793,-0.591 -1.758,-0.81 -2.859,-0.227 -2.416,1.277 -3.513,4.784 -3.947,7.279 -0.491,2.828 -0.344,5.891 0.77,8.569 0.377,0.91 0.843,1.768 1.373,2.578 -0.148,0.293 -0.232,0.621 -0.217,0.93 0.077,1.64 0.83,2.701 1.94,3.266 -1.993,1.781 -3.465,4.109 -2.336,6.692 0.922,2.104 3.174,2.623 5.394,2.435 -1.269,1.963 -1.938,4.306 -0.748,6.04 2.044,2.978 6.279,-0.16 8.902,-0.311 0.282,-0.015 0.585,-0.041 0.848,0.089 0.075,0.039 0.144,0.091 0.202,0.158 0.003,0.033 0.003,0.085 -0.003,0.162 -0.061,0.796 -0.303,1.572 -0.401,2.362 -0.254,2.027 1.008,4.547 3.316,4.451 2.047,-0.087 3.773,-1.399 5.259,-2.689 0.786,-0.678 1.519,-1.409 2.214,-2.176 -0.065,2.159 0.655,4.25 1.999,6.128 1.664,2.32 3.951,4.631 6.721,5.568 2.212,0.75 5.23,0.615 5.844,-2.127 0.32,-1.423 -0.103,-2.754 -0.418,-4.107 2.076,0.647 4.231,1.631 5.86,-0.479 0.893,-1.152 0.943,-2.278 0.72,-3.421 1.571,0.896 3.303,1.575 4.639,0.329 0.362,-0.342 0.567,-0.787 0.665,-1.279 2.483,0.161 5.117,-0.104 7.264,0.117 0.685,0.075 1.082,-0.298 0.996,-0.995 z"
   id="path356" />

			<path
   style="fill:#784313"
   d="m 153.666,122.354 c -1.65,0.358 -3.289,0.741 -4.939,1.11 -3.454,0.777 -7.059,0.75 -10.584,0.707 -3.196,-0.04 -6.37,-0.458 -9.558,-0.565 2.065,-0.998 4.2,-1.848 6.359,-2.621 2.822,-1.01 5.709,-1.805 8.539,-2.782 2.533,-0.873 4.642,-2.248 6.715,-3.859 0.003,-10e-4 0.005,-0.003 0.009,-0.003 0.0798,-1.29242 -2.99171,-0.0277 -5.873,0.984 -0.075,0.031 -0.165,-0.008 -0.162,-0.099 0.0719,-12.38966 17.80095,-40.413738 1.32,-10.468 -0.0846,1.12155 -0.93167,3.08369 -1.105,3.569 -2.18369,-4.8981 -1.00306,-18.840095 -2.948,-6.671 0.006,0.791 0.095,1.576 0.274,2.344 0.033,0.259 0.072,0.519 0.13,0.781 0.563,2.48 0.683,10.525 -2.902,11.636 -2.009,0.619 -1.844,0.379 -3.859,0.952 -0.962,0.276 -1.931,0.547 -2.874,0.902 -1.214,0.455 -2.319,1.175 -3.502,1.698 0.328,-0.763 0.662,-1.525 0.957,-2.305 0.521,-1.405 0.683,-2.972 0.95,-4.444 0.288,-1.595 0.659,-3.154 1.283,-4.651 0.642,-1.538 1.313,-3.033 1.825,-4.619 1.052,-3.23 1.312,-6.527 1.995,-9.831 0.314,-1.534 0.831,-3.039 1.236,-4.555 0.312,-1.154 1.129,-2.204 1.233,-3.41 0.037,-0.452 -0.415,-0.38 -0.662,-0.163 -1.5,1.316 -2.336,3.355 -2.962,5.2 -0.425,1.265 -0.589,2.612 -0.87,3.913 -0.308,1.434 -0.875,2.787 -1.185,4.228 -0.099,0.462 -0.179,0.936 -0.258,1.407 -0.191,0.366 -0.386,0.729 -0.596,1.082 -1.287,2.577 -2.105,5.336 -2.778,8.13 -0.053,0.2 -0.104,0.399 -0.15,0.598 -0.055,0.074 -0.195,0.037 -0.195,-0.068 -0.008,-1.205 -0.34,-2.342 -0.58,-3.516 -0.221,-1.072 -0.285,-2.16 -0.238,-3.255 0.02,-0.486 0.063,-0.97 0.119,-1.45 -0.014,-0.622 0.032,-1.236 0.193,-1.851 0.402,-1.522 1.241,-3.142 1.217,-4.754 0.505,-1.396 0.868,-2.862 0.469,-4.1 -0.087,-0.267 -0.428,-0.243 -0.63,-0.164 -0.045,0.017 -0.091,0.04 -0.137,0.063 -1.46,3.777 -2.143,7.749 -2.653,11.755 -0.309,2.43 0.78,4.547 0.88,6.892 0.063,1.535 -0.927,3.454 -1.327,4.941 -0.442,1.642 -0.848,3.193 -1.907,4.558 -1.05,1.353 -2.541,2.24 -3.946,3.175 -3.33,2.215 -6.416,4.494 -9.231,7.346 -1.209,1.219 -2.486,2.345 -3.516,3.738 -0.198,0.262 -0.384,0.538 -0.559,0.821 0.022,-1.217 0.094,-2.439 0.219,-3.654 0.28513,-2.45586 0.0745,-5.16965 0.134,-7.377 0.174,-2.437 0.496,-4.924 1.061,-7.338 0.09,-1.381 0.246,-2.773 0.463,-4.164 0.086,-0.244 0.173,-0.485 0.264,-0.727 0.527,-1.426 1.369,-2.397 2.6,-3.274 2.285,-1.627 5.013,-2.501 7.302,-4.134 2.035,-1.452 3.649,-3.518 5.111,-5.52 0.372,-0.51 2.505,-3.411 0.942,-3.724 -1.258,-0.255 -2.723,1.675 -3.404,2.511 -0.606,0.745 -1.068,1.567 -1.526,2.401 -0.494,0.418 -0.966,0.869 -1.434,1.324 -1.275,1.235 -2.683,2.242 -4.18,3.186 -1.41,0.889 -3.007,1.422 -4.408,2.318 0.504,-1.698 1.104,-3.355 1.805,-4.918 0.625,-1.394 1.677,-2.314 2.661,-3.446 1.095,-1.265 2.139,-2.58 3.171,-3.903 1.037,-1.328 2.061,-2.665 3.143,-3.959 0.974,-1.168 1.54267,-2.346383 2.20767,-3.731383 0.78039,-1.634679 4.62533,-10.03656 1.35389,-7.204152 -0.224,0.388 -0.96511,0.752107 -1.24756,2.014535 -0.419,0.84 -0.799,1.7 -1.125,2.58 -0.258,0.695 -0.464,1.424 -0.851,2.062 -0.384,0.629 -0.885,1.159 -1.347,1.731 -0.615,0.754 -1.181,1.548 -1.729,2.358 -0.955,1.417 -1.872,2.864 -2.932,4.207 -0.044,0.051 -0.149,0.035 -0.173,-0.024 -0.533,-1.306 -0.713,-2.751 -0.792,-4.148 -0.087,-1.508 -0.063,-3.027 0.133,-4.523 0.391,-2.992 1.259,-6.028 2.575,-8.772 -0.366,-0.078 -0.7,-0.015 -1.006,0.147 -0.72,1.837 -1.542,3.636 -2.165,5.51 -0.338,1.018 -0.63,2.039 -0.725,3.11 -0.091,1.014 -0.097,2.031 -0.101,3.047 -0.002,1.005 -0.075,1.993 -0.145,2.995 -0.179,2.493 0.842,3.779 -0.731,6.097 -1.178,1.738 -2.884,3.035 -3.959,4.854 -1.392,2.362 -2.261,4.982 -2.964,7.621 -0.59,2.204 -0.721,5.161 -1.839,7.163 0.146,-0.262 -0.781,-2.679 -0.861,-3.005 -0.347,-1.389 0.011,-2.999 -0.228,-4.412 -0.472,-2.81 -0.252,-5.58 -0.134,-8.427 0.23,-5.524 1.342,-9.845 2.911,-15.021 0.731,-2.418 0.855,-5.008 1.022,-7.514 0.064,-0.967 -1.33,-0.033 -1.475,0.452 -0.714,2.384 -1.366,4.786 -2.052,7.181 -0.873,3.048 -2.407,6.037 -2.555,9.236 -0.118,2.64 -0.708,4.547 -1.563,8.647 -0.615,-1.101 -0.534,-2.555 -0.596,-3.793 -0.073,-1.523 -0.377,-2.924 -0.909,-4.351 -1.133,-3.03 -2.001,-6.142 -3.175,-9.163 -1.119,-2.892 -2.465,-5.738 -3.359,-8.707 0.103814,-5.495767 -1.663182,-9.735583 -2.989,-2.882 -0.275,1.917 0.262,4.178 1.269,5.925 0.46,1.483 1.03,2.951 1.569,4.388 -0.988,-0.591 -2.047,-1.124 -3.028,-1.646 -1.718,-0.922 -3.439,-1.823 -5.115,-2.824 -0.793,-0.468 -1.59,-0.965 -2.316,-1.531 -0.586,-0.455 -1.064,-0.864 -1.817,-0.974 -1.364895,-0.299396 -0.624278,1.313238 -0.637,1.34 0.486,0.2 0.888,0.685 1.291,1.012 0.6,0.482 1.213,0.946 1.847,1.387 2.25,1.563 4.64,2.801 7.094,4.004 1.052,0.518 2.118,1.076 2.997,1.858 0.898,0.798 1.509,1.775 2.019,2.858 1.158,2.457 1.808,5.112 2.379,7.761 0.005,0.028 0,0.055 -0.013,0.076 0.486,2.461 0.673,4.965 0.957,7.456 0.144,1.261 0.639,2.455 0.777,3.713 0.081,0.75 -0.062,1.658 -0.13,2.366 -0.888,-1.078 -1.924,-2.013 -2.86,-3.044 -1.355,-1.495 -2.773,-2.928 -4.235,-4.325 -2.888,-2.76 -5.932,-5.361 -8.981,-7.94 -1.013,-1.195 -1.868,-2.463 -2.821,-3.746 -1.315,-1.758 -2.627,-3.528 -3.202,-5.679 -0.133,-0.486 -1.063397,0.06146 -1.116397,0.312464 -0.091,0.422 0.0794,0.911536 0.0284,1.344536 0.492,1.967 2.419,3.794 3.297,5.495 0.8,1.552 1.372,3.136 2.625,4.398 0.835,0.835 1.751,1.606 2.489,2.531 -1.364,-0.98 -2.765,-1.8 -4.455,-2.298 -4.74,-1.404 -9.514,-2.683 -14.162,-4.374 -2.356219,-1.152585 -2.575447,-1.080967 -2.687,0.759 0.395,0.577 1.131,0.523 1.763,0.641 3.145,0.57 5.971,2.081 8.878,3.334 1.415,0.61 2.844,1.048 4.35,1.382 1.423,0.312 6.632,4.255 7.715,5.095 3.113,2.417 5.516,5.108 7.358,8.686 1.37,2.657 1.822,3.975 1.798,6.871 -0.023,2.489 0.254,5.916 -0.298,8.235 -1.65,-0.503 -2.301,-2.453 -3.542,-3.498 -1.52,-1.277 -3.147,-2.417 -4.867,-3.414 -0.952268,-0.37427 -1.605759,-0.96911 -2.335,-1.461 -0.743,-0.763 -1.522,-1.522 -2.177,-2.36 -0.731,-0.928 -1.159,-2.26 -1.591,-3.347 -0.902,-2.268 -1.987,-4.41 -3.087,-6.587 -0.905,-1.79 -1.718,-3.869 -3.425,-5.047 -0.427,-0.296 -1.023,0.276 -0.898,0.733 0.435,1.611 1.615,2.839 2.389,4.284 0.925,1.739 1.393809,3.27964 2.047809,5.12364 0.401105,1.57933 0.922966,3.59779 1.376191,4.91836 -4.535483,-3.01305 -10.935577,-5.35096 -13.052,-9.677 -0.792,-1.786 -1.146,-3.66 -2.089,-5.406 -2.894433,-6.040351 -11.813049,-14.487633 -5.033,-4 0.129,0.221 0.264,0.439 0.394,0.659 0.947,1.407 1.824,2.847 2.629,4.348 0.95,1.767 1.692,3.64 2.591,5.432 0.076,0.147 -0.152,0.31 -0.268,0.193 -1.46,-1.472 -3.015,-2.844 -4.64,-4.126 -1.571,-1.241 -3.19,-2.563 -4.93,-3.557 -10.292592,-5.740939 -8.073213,-1.25199 -0.054,3.506 1.431,0.864 2.857,1.811 4.251,2.81 -1.528,-0.348 -3.077,-0.61 -4.601,-0.843 -11.914134,-4.83161 -23.880092,-1.75328 -3.085,1.747 2.771,0.292 5.644,0.689 8.329,1.437 1.544,0.436 2.975,1.137 4.424,1.791 1.447,1.614 7.331,5.009 10.656,7.424 1.713,0.901 3.459,1.727 5.271,2.429 1.344,0.524 2.727,0.961 4.032,1.584 1.096,0.529 2.097,1.198 3.018,1.987 1.439,0.816 2.794,1.808 4.025,2.95 1.255,0.957 2.393,2.065 3.281,3.317 1.281714,1.49332 1.47391,2.72897 1.796,4.223 0.188873,3.48865 0.349922,6.57823 0.452,9.666 0.571,2.944 0.223,6.212 -0.053,9.048 -0.615,6.396 0.29,12.849 -1.019,19.189 -0.594,2.882 -0.957,5.779 -1.228,8.716 -0.242,2.643 -0.914,5.045 -2.906,6.906 -5.078,4.749 -12.839,3.614 -18.981,5.931 -1.951874,0.52562 -0.678165,0.68872 -0.771,0.783 2.100012,-0.31295 4.512143,0.0444 6.32,-0.031 2.035,-0.326 4.114,-0.436 6.172,-0.33 -0.535,0.271 -1.116,0.479 -1.65,0.695 -0.936,0.364 -1.997,0.779 -3.016,0.779 -0.331,0 -1,0.647 -0.527,0.88 -0.107479,0.3833 0.440787,0.1671 0.641,0.243 3.559,1.165 7.154,-1.01 10.8,-0.727 2.083,0.161 4.094,0.622 6.193,0.482 2.034,-0.147 3.29921,-0.59535 5.27221,-1.09335 -0.266,0.276 0.16579,0.62635 -0.11421,0.89235 -0.211,0.201 -0.414,0.781 0.055,0.817 1.235,0.092 2.386997,-0.234 3.543997,-0.636 1.098,-0.38 2.63449,-0.21656 3.45249,-1.09556 0.55,-0.595 1.71851,0.60356 2.29151,0.86456 0.871,0.402 1.903,0.351 2.832,0.284 0.23,-0.019 0.538,-0.334 0.494,-0.577 -0.054,-0.304 -0.149,-0.602 -0.256,-0.885 0.3,0.141 1.22207,0.43701 1.53207,0.56001 0.701,0.286 1.62883,0.39794 2.37183,0.47094 1.738,0.178 2.7011,-0.35195 4.4011,-0.65295 1.975,-0.348 3.944,-0.444 5.941,-0.469 1.902,-0.029 3.22478,-0.28548 5.10178,0.10352 0.363,0.078 1.52622,-0.44052 1.20722,-0.76352 -1.729,-1.719 -3.807,-2.426 -6.126,-3.003 -2.894,-0.721 -5.703,-2.214 -8.412,-3.427 -2.063,-0.92 -4.24,-2.282 -5.385,-4.287 -0.257,-0.45 -0.426,-0.924 -0.54,-1.417 -0.446,-0.878 -0.751,-1.849 -0.963,-2.79 -0.655,-2.876 -0.712,-5.862 -0.741,-8.801 -0.057,-5.555 -0.727,-11.073 -1.173,-16.606 -0.398,-4.941 -0.748,-9.957 -0.651,-14.941 1.153,-2.426 2.858,-4.533 4.646,-6.519 3.114,-3.462 5.87,-5.639 8.616,-7.482 1.3824,-1.30332 2.99601,-2.24385 4.48,-3.18 0.857,-0.147 1.732,-0.199 2.652,-0.067 1.651,0.236 3.293,0.502 4.952,0.701 1.815,0.216 3.673,0.168 5.498,0.181 3.49,0.027 7.002,-0.079 10.371,-1.068 1.634,-0.476 3.24,-1.036 4.824,-1.654 0.72464,-0.45425 1.32369,-0.62106 0.52,-1.373 z"
   id="path386"
   sodipodi:nodetypes="ccccccccccccccccccccccccccccccccccccccccccccccccccccccccccccccccccccccccccccccccccccccccccccccccccccccccccccccccccccccccccccccccccccccccccccccccccccccccccccccccccccccccccccccccccccccccscccccccccccccccccccccscccccccccccccc" />
<path
   style="fill:#368a23"
   d="m 156.667,64.603 c 0.789,-0.219 1.678,-0.382 2.345,-0.617 1.287,-0.452 2.804,-1.431 2.925,-2.931 0.135,-1.787 -1.261,-3.2 -2.769,-3.876 -1.152,-0.512 -2.602,-0.613 -3.841,-1.051 2.204,-0.663 4.631,-1.281 5.515,-3.415 0.619,-1.487 -0.954,-2.535 -2.137,-2.908 -0.915,-0.285 -1.847,-0.377 -2.784,-0.461 1.296,-1.39 2.305,-3.055 3.004,-4.807 0.837,-2.111 1.173,-5.669 -1.113,-7.057 -2.125,-1.292 -4.883,0.248 -6.592,1.566 -0.51,0.392 -1.054,0.844 -1.582,1.343 -0.428,-0.687 -1.056,-1.28 -1.818,-1.648 -1.27,-0.613 -2.752,-0.58 -4.196,-0.233 0.14,-0.709 0.028,-1.464 -0.456,-2.222 -1.284,-2.031 -3.513,-1.677 -5.584,-1.597 1.401,-1.993 2.694,-4.099 3.364,-6.446 0.709,-2.495 0.445,-5.948 -1.693,-7.719 -1.818,-1.515 -4.326,-0.51 -6.062,0.597 -1.114,0.71 -2.083,1.612 -3.082,2.48 0.129,-0.621 0.256,-1.244 0.276,-1.88 0.041,-1.526 -0.967,-2.685 -2.416,-3.022 -1.953,-0.458 -4.02,0.649 -5.529,2.169 -1.285,-2.043 -4.645,-1.921 -7.331,-1.261 0.648,-2.346 -0.299,-4.92 -3.325,-4.781 -1.101,0.05 -2.028,0.528 -2.779,1.25 -0.167,-0.877 -0.404,-1.728 -0.695,-2.506 -0.902,-2.397 -3.306,-3.767 -5.639,-2.227 -2.062,1.358 -2.497,4.45 -2.806,6.679 -0.091,0.653 -0.16,1.309 -0.216,1.969 -0.454,-0.685 -1.026,-1.291 -1.761,-1.547 -2.067,-0.715 -3.254,0.456 -4.07,1.991 -0.873,-1.81 -2.008,-3.601 -3.965,-3.48 0.19,-2.583 -0.524,-5.173 -3.455,-4.703 -1.814,0.289 -2.986,2.224 -3.718,3.72 -0.055,0.115 -0.11,0.233 -0.164,0.348 -0.703,-2.031 -1.993,-3.725 -4.049,-3.227 -2.305,0.555 -2.588,2.873 -2.584,5.128 -1.26,-1.086 -2.857,-1.537 -4.334,-0.155 -1.281,1.199 -1.36,2.972 -0.959,4.761 -0.959,-0.383 -1.991,-0.338 -2.994,0.483 -1.161,0.95 -1.306,2.454 -0.97,3.988 -1.991,-0.719 -4.177,-0.667 -5.904,0.704 -2.424,1.928 -1.919,5.487 -0.384,8.143 -0.268,0.308 -0.465,0.696 -0.556,1.174 -0.446,2.37 2.923,3.062 5.097,3.851 -0.918,0.27 -1.899,0.42 -2.77,0.719 -1.565,0.534 -2.766,1.682 -3.287,3.257 -0.748,2.265 0.774,4.272 2.207,6.113 -1.192,-0.278 -2.359,-0.262 -3.597,0.688 -0.99,0.761 -1.532,1.922 -1.447,3.164 0.045,0.597 0.217,1.161 0.388,1.723 -1.642,-0.775 -3.221,-1.719 -4.966,-2.265 -2.298,-0.72 -5.401,-0.83 -6.595,1.719 -0.974,2.081 1.699,4.154 3.093,5.184 1.446,1.064 3.028,1.907 4.559,2.832 -3.071,1.245 -6.928,3.468 -5.455,6.994 0.704,1.685 2.545,2.017 4.167,1.807 1.139,-0.144 2.447,-0.717 3.679,-0.877 -1.447,1.325 -3.063,2.47 -4.316,4.011 -1.228,1.51 -2.533,4.307 -0.298,5.643 1.922,1.15 4.401,-0.323 5.982,-1.416 1.016,-0.699 1.953,-1.498 2.862,-2.331 -0.246,2.144 -0.336,4.334 1.819,5.564 0.675,0.387 1.438,0.543 2.18,0.485 -1.645,3.516 -2.954,7.42 0.498,7.289 2.407,-0.093 4.236,-2.776 5.484,-4.52 0.711,-0.994 1.33,-2.057 1.966,-3.108 0.209,0.376 0.497,0.71 0.894,0.981 1.289,0.87 3.054,-0.347 3.929,-1.227 2.24,-2.252 2.117,-5.41 1.619,-8.388 0.797,0.312 1.616,0.23 2.395,-0.752 0.912,-1.158 0.953,-2.407 0.659,-3.669 0.87,0.52 1.853,0.756 3.021,0.445 0.476,-0.124 0.919,-0.331 1.321,-0.595 0,2.531 0.54,4.587 3.485,4.112 2.393,-0.386 3.758,-3.106 4.57,-5.094 0.418,-1.01 0.848,-2.202 1.126,-3.416 0.162,0.082 0.331,0.153 0.516,0.208 1.628,0.471 3.078,-1.182 3.657,-2.465 0.896,-1.987 0.645,-4.129 -0.025,-6.194 0.418,0.144 0.888,0.211 1.418,0.155 1.109,-0.116 1.935,-0.643 2.533,-1.391 0.212,0.449 0.46,0.88 0.777,1.28 0.598,0.755 1.398,1.007 2.234,0.97 -1.147,2.176 -2.591,4.973 -0.291,6.557 1.778,1.225 4.014,0.651 5.938,-0.511 0.044,0.4 0.178,0.799 0.414,1.182 0.867,1.391 2.521,2.048 4.035,2.453 0.457,0.122 0.921,0.214 1.396,0.282 -0.663,0.378 -1.322,0.76 -1.963,1.167 -1.232,0.777 -3.596,2.223 -3.61,3.946 -0.014,1.933 2.861,1.749 4.864,1.424 -0.184,0.753 -0.427,1.493 -0.323,2.298 0.161,1.248 1.147,1.999 2.288,2.31 1.415,0.382 2.805,-0.259 3.982,-1.185 0.702,0.766 1.943,0.839 3.302,0.359 0.062,-0.022 0.124,-0.051 0.187,-0.073 0.623,1.265 1.852,1.925 3.221,2.017 0.059,0.003 0.119,0.003 0.178,0.003 1.705,1.296 5.042,1.271 6.763,1.135 2.202,-0.171 4.142,-1.335 5.528,-3.021 1.179,-1.434 1.503,-3.378 1.424,-5.224 3.769,0.081 7.559,0.615 11.111,-1.073 1.797,-0.859 4.098,-2.49 4.567,-4.559 0.316,-1.401 -0.588,-2.619 -1.507,-3.689 z"
   id="path360" />

			<path
   style="fill:#5fa923"
   d="m 71.648989,81.365837 c -0.899,-0.883 -1.835,-1.569 -2.98,-1.994 0.262,-0.101 0.522,-0.197 0.778,-0.286 0.444,-0.149 0.833,-0.773 0.531,-1.193 -0.625,-0.878 -1.737,-1.235 -2.948,-1.313 0.925,-0.742 1.742,-1.632 2.309,-2.659 0.104,-0.184 0.135,-0.548 -0.053,-0.699 -1.51,-1.205 -3.47,-1.482 -5.398,-1.404 0.805,-0.956 1.486,-2.034 1.973,-3.158 0.071,-0.162 0.133,-0.478 -0.046,-0.611 -1.381,-0.998 -3.421,-0.587 -4.976,-0.27 -0.209,0.042 -0.412,0.105 -0.614,0.174 0.009,-0.024 0.018,-0.048 0.025,-0.07 0.386,-1.206 1.673,-3.826 0.72,-5.001 -0.966,-1.184 -3.508,0.625 -4.388,1.181 -0.775,0.489 -1.642,1.007 -2.432,1.61 -0.132,-0.913 -0.603,-1.561 -1.695,-1.494 -1.654,0.097 -2.615,1.648 -3.136,3.355 -1.539,-2.468 -3.955,-5.491 -5.197,-2.744 -0.504,1.118 -0.039,2.565 0.225,3.687 -0.338,0.128 -0.661,0.306 -0.936,0.476 -0.834,0.52 -1.528,1.319 -2.08,2.244 -0.097,-0.244 -0.198,-0.484 -0.289,-0.707 -0.508,-1.231 -1.431,-3.269 -3.079,-2.993 -1.617,0.271 -2.641,2.687 -3.056,4.031 -0.179,0.584 -0.536,2.069 -0.408,3.202 -1.251,-0.392 -2.499,-0.3 -3.356,0.846 -1.323,1.769 0.937,3.695 2.887,4.937 -0.031,0.064 -0.065,0.128 -0.092,0.194 -0.351,-0.404 -0.835,-0.687 -1.496,-0.773 -1.141,-0.144 -2.185,0.214 -3.076,0.844 0.013,-1.711 -0.498,-3.199 -2.462,-2.557 -0.498,0.168 -0.94,0.428 -1.335,0.759 -0.508,-2.118 -1.526,-4.021 -3.143,-2.797 -1.124,0.847 -1.852,2.308 -2.338,3.591 -0.221,0.584 -0.487,1.353 -0.538,2.089 -0.796,-0.948 -1.788,-1.443 -2.832,-0.705 -1.104,0.779 -1.082,1.917 -0.937,3.103 -0.458,-0.378 -0.896,-0.779 -1.324,-1.189 -0.475,-0.458 -1.19,0.352 -1.19,0.818 0.003,1.18 -0.194,2.544 0.339,3.636 0.091,0.189 0.211,0.517 0.37,0.798 -2.008,0.374 -3.975,1.148 -5.464,2.464 -0.212,0.187 -0.456,0.683 -0.183,0.926 0.948,0.838 2.036,1.724 3.225,2.313 -0.447,0.348 -0.882,0.719 -1.315,1.101 -1.686,1.492 -3.481,3.247 -4.04,5.495003 -0.06,0.236 0.024,0.546 0.276,0.637 1.47,0.543 3.142,0.463 4.701,0.3 -0.517,0.682 -0.92,1.433 -1.054,2.352 -0.031,0.22 0.005,0.571 0.283,0.647 0.572,0.147 1.131,0.14 1.682,0.048 -0.832,1.511 -1.39,3.149 -1.483,4.954 -0.015,0.274 0.225,0.407 0.448,0.452 1.392,0.276 3.012,-0.749 4.349,-1.364 -0.072,0.391 -0.128,0.794 -0.174,1.2 -0.211,1.943 -0.183,4.21 0.321,6.11 0.528,2.01 2.485,1.408 3.84,0.575 0.18,-0.109 0.356,-0.229 0.523,-0.358 -0.031,0.423 -0.039,0.842 0.011,1.26 0.025,0.222 0.185,0.448 0.438,0.44 1.081,-0.039 1.766,-0.66 2.59,-1.191 -0.58,1.265 -1.1,2.544 -1.086,3.996 0.001,0.29 0.305,0.454 0.565,0.383 1.3,-0.347 2.575,-1.045 3.81,-1.586 0.628,-0.278 1.227,-0.606 1.809,-0.958 0.29,-0.168 0.577,-0.348 0.857,-0.538 0.272,-0.176 0.541,-0.358 0.816,-0.535 0.56,-0.371 1.156,-0.81 1.718,-1.297 0.431,0.757 0.96,1.471 1.534,2.204 0.958,1.232 2.42,1.635 3.428,0.212 0.774,-1.089 1.009,-2.447 1.295,-3.723 0.502,0.45 1.082,0.822 1.659,1.098 1.813,0.86 4.153,1.032 6.081,0.51 1.762,-0.477 2.39,-1.814 1.793,-3.473 -0.268,-0.754 -0.647,-1.464 -1.064,-2.146 0.147,0.021 0.268,0.035 0.346,0.04 2.181,0.183 4.79,-0.427 6.423,-1.929 0.254,-0.232 0.428,-0.661 0.19,-0.957 -0.841,-1.033 -1.827,-2.401 -2.98,-3.51 0.088,-0.027 0.171,-0.056 0.252,-0.081 1.359,-0.462 3.235,-1.388 3.929,-2.723 0.712,-1.369 -1.399,-2.205003 -2.389,-2.556003 -0.462,-0.16 -0.962,-0.276 -1.476,-0.36 0.318,-0.216 0.617,-0.461 0.892,-0.743 0.031,-0.032 0.06,-0.065 0.091,-0.1 0.215,0.412 0.548,0.731 1.065,0.853 1.318,0.298 2.147,-1.624 2.43,-2.559 0.133,-0.422 0.228,-0.853 0.313,-1.289 0.757,0.509 1.654,0.853 2.503,1.112 1.355,0.414 2.914,0.778 3.609,-0.812 0.544,-1.248 -0.23,-2.928 -0.737,-4.053 -0.045,-0.093 -0.091,-0.195 -0.137,-0.3 1.309,0.028 2.893,0.092 3.953,-0.647 1.529,-1.062 0.418,-2.815 -0.325,-3.981 -0.358,-0.567 -0.753,-1.005 -1.183,-1.363 0.286,0.04 0.569,0.076 0.858,0.103 2.667,0.251 5.644,-0.59 7.624,-2.423 0.277,-0.259 0.574,-0.855 0.233,-1.188 z"
   id="path544" />

			<path
   style="fill:#5fa923"
   d="m 134.2934,54.364096 c -0.028,-0.304 -0.2,-0.545 -0.595,-0.639 h -0.004 c -0.867,-0.673 -2.168,-0.962 -3.157,-1.189 -0.888,-0.203 -1.868,-0.345 -2.882,-0.412 0.497,-0.536 0.978,-1.089 1.438,-1.653 1.014,-1.25 1.69,-2.547 2.395,-3.979 0.776,-1.579 2.01,-4.16 -0.57,-4.74 -0.941,-0.217 -2.001,-0.322 -3.058,-0.275 0.32,-0.509 0.615,-1.031 0.888,-1.574 0.465,-0.928 1.067,-1.96 1.15,-3.019 0.208,-2.603 -4.278,-1.867 -8.178,-0.682 0.699,-2.328 1.387,-4.576 1.567,-7.042 0.066,-0.89 0.035,-1.84 -0.622,-2.517 -0.748,-0.763 -2.055,-0.302 -2.852,0.102 -1.322,0.671 -2.637,1.399 -3.927,2.171 -0.186,-0.805 -0.398,-1.593 -0.57,-2.344 -0.485,-2.095 -1.479,-4.516 -4.065,-4.012 -2.528,0.496 -4.363,3.247 -5.745,5.195 -0.61,0.862 -1.279,1.682 -1.907,2.528 0.018,-0.58 0.018,-1.158 -0.002,-1.732 -0.06,-1.587 0.011,-4.268 -1.495,-5.223 -1.36,-0.864 -3.051001,1.256 -3.862001,2.13 -0.119,-0.384 -0.265,-0.764 -0.424,-1.131 -0.619,-1.418 -2.169,-4.068 -3.923,-4.1 -2.276,-0.045 -3.809,3.235 -4.621,4.929 -0.147,0.312 -0.294,0.633 -0.44,0.96 -1.251,-1.056 -3.277,-1.517 -4.647,-1.864 -1.974,-0.5 -5.094,-0.703 -5.359,2.033 -0.185,1.936 0.868,3.981 1.239,5.652 0.044,0.201 0.103,0.434 0.172,0.695 -0.897,0.204 -1.787,0.479 -2.63,0.752 -2.025,0.662 -5.651,1.886 -4.966,4.664 0.391,1.579 1.628,2.927 2.718,4.193 -2.454,0.763 -5.223,1.837 -6.447,4.204 -1.385,2.676 1.69,4.364 3.711,5.324 0.533,0.254 1.227,0.57 1.983,0.845 -1.574,0.956 -4.075,2.783 -2.806,4.824 1.118,1.811 3.622,3.158 5.543,3.919 0.194,0.075 0.39,0.144 0.591,0.208 -0.226,0.179 -0.452,0.358 -0.671,0.543 -1.062,0.907 -4.19,4.336 -1.826,5.511 0.814,0.406 1.767,0.341 2.647,0.287 0.232,-0.015 0.464,-0.029 0.692,-0.042 0.519,0.027 1.056,-0.02 1.595,-0.116 0.397,-0.033 0.797,-0.079 1.191,-0.125 -0.503,0.549 -0.98,1.113 -1.428,1.674 -0.546,0.683 -1.189,1.723 -0.799,2.617 0.33,0.756 1.421,0.763 2.11,0.729 1.907,-0.099 3.797,-0.82 5.61,-1.39 0.192,-0.063 0.389,-0.125 0.583,-0.191 0.047,1.471 0.424,3.33 1.265,4.476 1.357,1.846 2.989,-0.033 3.747,-1.353 0.424,-0.738 0.909,-1.434 1.384,-2.14 0.145,0.673 0.346,1.321 0.566,1.91 0.671,1.771 2.383,1.132 3.474,0.199 0.743,-0.637 1.341,-1.515 1.834,-2.437 0.324001,1.016 0.858001,1.962 1.518001,2.792 0.533,0.663 1.161,1.25 1.782,1.825 0.456,0.419 1.006,1.006 1.688,0.874 1.731,-0.337 1.911,-2.686 2.095,-4.055 0.103,-0.745 0.155,-1.492 0.188,-2.24 1.075,1.4 2.833,2.915 3.267,3.208 1.691,1.142 3.53,-0.17 3.784,-2.038 0.075,-0.536 0.09,-1.092 0.082,-1.646 0.298,0.198 0.609,0.344 0.933,0.426 0.7,0.593 1.515,1.087 2.327,1.438 0.721,0.308 1.468,-0.43 1.759,-0.999 0.43,-0.842 0.515,-1.726 0.476,-2.619 0.158,0.1 0.323,0.206 0.502,0.307 0.674,0.373 1.409,0.621 2.145,0.835 1.893,0.552 4.283,0.168 4.252,-2.318 -0.007,-0.44 -0.219,-0.918 -0.384,-1.318 -0.276,-0.676 -0.404,-1.439 -0.613,-2.142 -0.175,-0.587 -0.386,-1.171 -0.627,-1.749 2.997,-1.041 5.809,-2.563 8.243,-4.618 1.049,-0.892 1.762,-2.114 0.968,-3.316 z"
   id="path558" />

			<path
   style="fill:#5fa923"
   d="m 189.47145,85.508572 c 0.128,-0.322 0.162,-0.787 -0.229,-0.946 -1.66,-0.675 -3.513,-0.953 -5.289,-0.689 0.854,-0.91 1.34,-2.01 0.956,-3.449 -0.645,-2.424 -3.556,-2.177 -5.744,-1.584 0.269,-0.627 0.533,-1.26 0.757,-1.909 0.38,-1.09 1.059,-2.876 0.315,-3.949 -0.582,-0.851 -1.634,-0.485 -2.493,0.075 -0.514,-0.221 -1.15,-0.111 -1.777,0.146 -0.487,0.198 -0.938,0.498 -1.378,0.794 0.418,-0.886 0.733,-1.822 -0.262,-2.346 -0.728,-0.389 -1.597,-0.392 -2.358,-0.083 -0.494,0.2 -0.945,0.525 -1.411,0.81 0.382,-1.204 0.685,-2.445 0.58,-3.708 -0.151,-1.793 -1.852,-2.938 -3.599,-2.487 -1.223,0.319 -1.915,1.161 -2.301,2.238 -0.169,-0.185 -0.361,-0.344 -0.579,-0.469 -1.193,-0.683 -2.52,0.101 -3.279,1.101 -0.33,-1.101 -0.823,-2.416 -1.886,-2.886 -0.371,-0.164 -0.822,0.091 -1.075,0.346 -1.026,1.027 -1.559,2.472 -1.925,3.866 -0.339,-1.248 -0.984,-2.498 -2.195,-2.757 -1.51,-0.32 -2.445,1.644 -2.832,2.763 -0.194,0.56 -0.354,1.137 -0.505,1.711 -0.053,-0.574 -0.17,-1.145 -0.351,-1.69 -0.424,-1.249 -1.713,-1.031 -2.604,-0.485 0.007,-0.049 0.018,-0.101 0.023,-0.15 0.16,-1.183 0.287,-2.968 -0.836,-3.716 -0.672,-0.447 -1.553,-0.132 -2.39,0.464 0.195,-1.584 0.044,-3.134 -1.468,-2.799 -0.926,0.204 -1.522,1.142 -1.947,1.969 -1.097,-3.184 -4.559,-7.707 -6.934,-4.463 -0.856,1.171 -0.918,2.787 -0.818,4.255 -0.262,-0.134 -0.535,-0.253 -0.811,-0.343 -1.385,-0.452 -2.794,-0.086 -3.456,1.286 -0.585,1.213 0.035,2.959 0.479,4.217 -0.124,-0.032 -0.244,-0.06 -0.369,-0.085 -1.704,-0.335 -3.76,0.184 -5.253,1.002 -0.512,0.282 -1.118,0.879 -0.874,1.534 0.482,1.312 1.171,3.151 2.194,4.548 -1.102,0.55 -2.11,1.335 -2.344,2.458 -0.388,1.857 1.778,2.975 3.097,3.762 0.086,0.048 0.174,0.099 0.261,0.151 -0.048,0.025 -0.102,0.048 -0.148,0.075 -2.082,1.093 -4.006,2.394 -5.164,4.49 -0.165,0.294 -0.119,0.738 0.215,0.886 1.351,0.603 2.796,1.164 4.27,1.544 -0.608,0.743 -1.182,1.541 -1.736,2.39 -0.73,1.117 -2.878,4.131 -0.789,4.954 1.7,0.667 4.007,0.187 5.756,-0.043 0.373,-0.051 0.757,-0.125 1.148,-0.219 -0.215,0.411 -0.416,0.821 -0.589,1.227 -0.238,0.541 0.028,1.132998 0.682,1.005998 0.553,-0.1 1.078,-0.268 1.59,-0.471998 -0.107,0.147 -0.216,0.295998 -0.318,0.447998 -0.724,1.077 -1.799,2.322 -1.441,3.709 0.039,0.152 0.254,0.285 0.408,0.272 1.03,-0.068 2.009,-0.367 2.958,-0.757 0.709,-0.222 1.411,-0.611 1.844,-0.864 0.713,-0.36 1.419,-0.729 2.129,-1.053 0.075,-0.032 0.151,-0.065 0.225,-0.1 -0.01,0.037 -0.023,0.073 -0.035,0.112 -0.379,1.196 -0.976,3.549 0.278,4.467 1.401,1.028 3.672,-0.793 4.741,-1.612 0.308,-0.238 0.612,-0.479 0.912,-0.722 -0.207,0.805 -0.372,1.62 -0.502,2.437 -0.064,0.415 0.111,0.681 0.516,0.766 0.32,0.065 0.641,0.041 0.959,-0.04 -0.356,0.653 -0.655,1.339 -0.874,2.074 -0.129,0.43 0.163,0.73 0.553,0.812 0.777,0.167 1.623,-0.084 2.421,-0.402 -0.932,1.271 -1.891,3.063 -1.413,4.657 0.413,1.372 2.313,1.435 3.42,1.118 0.437,-0.128 0.85,-0.322 1.234,-0.571 -0.065,0.669 -0.022,1.34 0.128,1.941 0.219,0.894 1.086,1.349 1.949,1.251 0.255,-0.031 0.497,-0.124 0.725,-0.259 -0.566,2.628 -0.811,5.777 1.606,6.868 1.35,0.609 2.868,-0.993 3.602,-1.906 0.365,-0.454 0.704,-0.936 1.017,-1.436 0.123,0.347 0.272,0.686 0.442,1.018 0.846,1.6 2.639,3.504 4.568,3.674 1.661,0.15 2.255,-1.153 2.499,-2.495 0.719,1.04 1.709,1.887 3.004,1.574 1.04,-0.254 1.826,-1.153 2.238,-2.102 0.113,-0.262 0.195,-0.547 0.265,-0.833 0.378,0.478 0.816,0.908 1.315,1.259 1.764,1.247 4.192,1.659 5.937,0.184 1.569,-1.327 0.633,-3.795 0.219,-5.404 -0.141,-0.551 -0.258,-1.104 -0.38,-1.659 2.08,0.139 4.391,0.007 6.188,-1.017 3.098,-1.762 0.302,-5.576 -1.71,-6.964 -0.32,-0.219 -1.216,-0.665 -2.184,-0.996 1.591,-1.121 2.96,-2.647 3.933,-4.332 0.196,-0.339 0.38,-0.88 -0.09,-1.098 -0.705,-0.328 -1.54,-0.529 -2.422,-0.603 1.758,-1.165 3.32,-2.775998 4.313,-4.615998 0.195,-0.363 0.1,-0.765 -0.236,-0.973 -0.583,-0.359 -1.202,-0.642 -1.845,-0.86 0.721,-0.256 1.398,-0.614 1.997,-1.12 1.082,-0.911 1.116,-2.304 0.005,-3.153 -0.407,-0.307 -0.856,-0.536 -1.331,-0.718 1.729,-0.929 3.197,-2.479 3.908,-4.317 z"
   id="path576" />

			
		</g>
  </g>
</svg>
